<svg width="49" height="49" viewBox="0 0 49 49" fill="none" xmlns="http://www.w3.org/2000/svg">
<g clip-path="url(#clip0_109_320)">
<path fill-rule="evenodd" clip-rule="evenodd" d="M21.2805 33.9644C23.1534 34.6001 25.1727 34.6662 27.0831 34.1543L29.6713 43.8136C25.8505 44.8374 21.8118 44.7052 18.0661 43.4337C14.3204 42.1622 11.0359 39.8085 8.62784 36.6703C6.21987 33.5321 4.79645 29.7503 4.53774 25.8031C4.27903 21.856 5.19657 17.9207 7.17444 14.4951C9.15219 11.0694 12.1015 8.30714 15.6491 6.55762C19.1968 4.8081 23.1837 4.14989 27.1055 4.66616C31.0272 5.18253 34.7078 6.85014 37.6818 9.45828C40.6558 12.0664 42.7896 15.4979 43.8134 19.3187L34.1542 21.9069C33.6423 19.9965 32.5754 18.2808 31.0884 16.9767C29.6014 15.6726 27.7611 14.8388 25.8001 14.5806C23.8393 14.3224 21.8459 14.6516 20.072 15.5264C18.2982 16.4011 16.8236 17.7822 15.8346 19.4951C14.8458 21.208 14.387 23.1755 14.5164 25.1491C14.6457 27.1227 15.3573 29.0136 16.5614 30.5827C17.7654 32.1518 19.4077 33.3286 21.2805 33.9644Z" fill="#007DFC"/>
<path fill-rule="evenodd" clip-rule="evenodd" d="M39.3306 41.2254C38.9907 39.9569 38.9039 38.6339 39.0754 37.3319C39.2468 36.03 39.6729 34.7745 40.3296 33.6372C40.9862 32.4999 41.8603 31.5031 42.9022 30.7037C43.944 29.9042 45.1331 29.3178 46.4016 28.9779L43.8134 19.3187C41.2765 19.9985 38.8983 21.1712 36.8146 22.7701C34.7309 24.369 32.9825 26.3627 31.6693 28.6372C30.3561 30.9117 29.5037 33.4227 29.1609 36.0267C28.8181 38.6307 28.9915 41.2766 29.6713 43.8136L39.3306 41.2254Z" fill="#007DFC"/>
</g>
<defs>
<clipPath id="clip0_109_320">
<rect width="40" height="40" fill="white" transform="translate(48.9898 38.6372) rotate(165)"/>
</clipPath>
</defs>
</svg>
